<svg xmlns="http://www.w3.org/2000/svg"  viewBox="0 0 50 50" width="50px" height="50px"><path d="M 7 4 C 5.3550302 4 4 5.3550302 4 7 L 4 42 C 4 43.64497 5.3550302 45 7 45 L 39.369141 45 L 43.099609 48.699219 C 44.699609 50.299219 47.200391 50.399219 48.900391 48.699219 C 50.500391 47.099219 50.300391 44.500391 48.900391 42.900391 L 46 40.039062 L 46 7 C 46 5.3550302 44.64497 4 43 4 L 7 4 z M 7 6 L 43 6 C 43.56503 6 44 6.4349698 44 7 L 44 38.064453 L 34.701172 28.888672 C 34.577172 28.766672 34.425812 28.679766 34.257812 28.634766 L 28.257812 27.033203 C 27.907812 26.941203 27.539109 27.041828 27.287109 27.298828 C 27.035109 27.554828 26.939109 27.927437 27.037109 28.273438 L 28.738281 34.273438 C 28.785281 34.439437 28.873094 34.588938 28.996094 34.710938 L 37.353516 43 L 7 43 C 6.4349698 43 6 42.56503 6 42 L 6 7 C 6 6.4349698 6.4349698 6 7 6 z M 13 13 A 1.0001 1.0001 0 1 0 13 15 L 37 15 A 1.0001 1.0001 0 1 0 37 13 L 13 13 z M 13 20 A 1.0001 1.0001 0 1 0 13 22 L 37 22 A 1.0001 1.0001 0 1 0 37 20 L 13 20 z M 13 27 A 1.0001 1.0001 0 1 0 13 29 L 23 29 A 1.0001 1.0001 0 1 0 23 27 L 13 27 z M 33.486328 30.498047 L 46.740234 43.658203 L 43.755859 46.644531 L 30.591797 33.474609 L 30.558594 33.359375 L 33.486328 30.498047 z"/></svg>