<svg width="30" height="30" viewBox="0 0 30 30" fill="none" xmlns="http://www.w3.org/2000/svg">
<path fill-rule="evenodd" clip-rule="evenodd" d="M15 30C23.2843 30 30 23.2843 30 15C30 6.71573 23.2843 0 15 0C6.7157 0 0 6.71573 0 15C0 23.2843 6.7157 30 15 30ZM15 28C22.1797 28 28 22.1797 28 15C28 7.8203 22.1797 2 15 2C7.82031 2 2 7.8203 2 15C2 22.1797 7.82031 28 15 28Z" fill="black"/>
<rect x="6" y="19.0208" width="19" height="2" rx="1" transform="rotate(-45 6 19.0208)" fill="black"/>
<rect x="9" y="22.435" width="19" height="2" rx="1" transform="rotate(-45 9 22.435)" fill="black"/>
</svg>
